<?xml version="1.0" encoding="UTF-8" standalone="no"?>
<!-- Created with Inkscape (http://www.inkscape.org/) -->

<svg
   xmlns:dc="http://purl.org/dc/elements/1.1/"
   xmlns:cc="http://creativecommons.org/ns#"
   xmlns:rdf="http://www.w3.org/1999/02/22-rdf-syntax-ns#"
   xmlns:svg="http://www.w3.org/2000/svg"
   xmlns="http://www.w3.org/2000/svg"
   xmlns:sodipodi="http://sodipodi.sourceforge.net/DTD/sodipodi-0.dtd"
   xmlns:inkscape="http://www.inkscape.org/namespaces/inkscape"
   id="svg2"
   version="1.1"
   inkscape:version="0.91 r13725"
   width="600"
   height="300"
   viewBox="0 0 600 300"
   sodipodi:docname="predatory bird silhouette.svg">
  <metadata
     id="metadata8">
    <rdf:RDF>
      <cc:Work
         rdf:about="">
        <dc:format>image/svg+xml</dc:format>
        <dc:type
           rdf:resource="http://purl.org/dc/dcmitype/StillImage" />
        <dc:title></dc:title>
      </cc:Work>
    </rdf:RDF>
  </metadata>
  <defs
     id="defs6" />
  <sodipodi:namedview
     pagecolor="#ffffff"
     bordercolor="#666666"
     borderopacity="1"
     objecttolerance="10"
     gridtolerance="10"
     guidetolerance="10"
     inkscape:pageopacity="0"
     inkscape:pageshadow="2"
     inkscape:window-width="1584"
     inkscape:window-height="985"
     id="namedview4"
     showgrid="false"
     inkscape:zoom="0.38890873"
     inkscape:cx="125"
     inkscape:cy="59"
     inkscape:window-x="295"
     inkscape:window-y="75"
     inkscape:window-maximized="0"
     inkscape:current-layer="svg2" />
  <g
     id="g91357"
     transform="matrix(3.4705861,0,0,3.4705861,-83.248695,-50.801735)">
    <path
       style="fill:#484a54"
       d="M 90.5,93.041109 C 87.2,91.948421 82.475,90.757205 80,90.393962 77.525,90.03072 73.345841,88.893479 70.71298,87.866761 68.080118,86.840042 64.967618,86 63.796313,86 59.45178,86 63.22077,84.666621 71.973132,83.107236 76.934647,82.223256 81.065441,81.05 81.152673,80.5 81.239904,79.95 78.537739,77.925 75.147861,76 59.815376,67.293188 52.95186,62.657488 49.364779,58.5858 42.039942,50.271394 33.394359,37.272308 34.472375,36.194292 34.75792,35.908747 36.176601,36.215065 37.625,36.875 c 1.448399,0.659935 2.869336,0.963997 3.157638,0.675695 0.66366,-0.66366 6.131059,2.632152 13.217362,7.96758 3.025,2.277587 10.675,7.251084 17,11.052217 6.325,3.801132 14.942975,9.502781 19.151056,12.670329 C 94.359136,72.408369 98.716483,75 99.834048,75 c 1.117562,0 5.099592,-2.469305 8.848942,-5.487345 3.74936,-3.018039 7.09889,-5.493039 7.44341,-5.5 0.34453,-0.007 2.4844,-1.762506 4.75527,-3.901214 2.27088,-2.138707 5.814,-4.682077 7.8736,-5.651933 2.0596,-0.969856 5.30976,-3.045004 7.22257,-4.611441 C 137.89066,48.28163 140.0757,47 140.83349,47 c 0.75779,0 2.62355,-1.0125 4.14613,-2.25 1.52258,-1.2375 4.26571,-3.15 6.09584,-4.25 1.83013,-1.1 4.15371,-2.499906 5.16351,-3.110903 1.0098,-0.610996 2.86064,-2.073496 4.11297,-3.25 C 161.60427,32.962594 162.98961,32 163.43047,32 c 0.44087,0 2.94716,-1.575 5.56953,-3.5 2.62237,-1.925 5.25433,-3.5 5.84879,-3.5 0.59446,0 1.56251,-0.9 2.15121,-2 2.14205,-4.002462 10.7962,-1.417144 9.30228,2.778939 -0.33701,0.946583 -0.91184,2.171061 -1.27739,2.721061 -0.36555,0.55 -1.29567,2.997193 -2.06694,5.438207 -0.77126,2.441014 -2.41292,5.528686 -3.64812,6.861493 -1.23521,1.332807 -2.48455,3.160614 -2.77632,4.061793 -0.29178,0.901179 -1.99368,2.587351 -3.782,3.747049 -1.78833,1.159698 -5.41157,3.522198 -8.05164,5.25 C 162.0598,55.586344 159.3024,57 158.57231,57 c -0.73008,0 -1.91675,0.710104 -2.63705,1.578008 -0.7203,0.867905 -3.3629,2.624954 -5.87245,3.904553 -6.88349,3.509842 -18.14389,11.308031 -21.89482,15.162872 -2.9967,3.079721 -3.265,3.820869 -2.66623,7.365003 l 0.66578,3.94069 -5.67745,2.510838 C 112.32742,95.071882 98.786426,95.78489 90.5,93.041109 Z"
       id="path91359"
       inkscape:connector-curvature="0" />
  </g>
</svg>
