<?xml version="1.0" encoding="utf-8"?>
<!DOCTYPE svg PUBLIC "-//W3C//DTD SVG 1.1//EN" "http://www.w3.org/Graphics/SVG/1.1/DTD/svg11.dtd">
<svg version="1.1" id="Layer_1" xmlns="http://www.w3.org/2000/svg" xmlns:xlink="http://www.w3.org/1999/xlink" x="0px" y="0px"
	 viewBox="0 0 1592 1257" enable-background="new 0 0 1592 1257" xml:space="preserve">
<g>
	<path d="M1471.712,111.425c-20.542,0.178-40.931,1.669-61.196,5.182c-23.482,4.071-46.852,8.55-69.522,16.098
		c-11.093,3.693-13.355,14.535-21.526,21.85c-3.723,3.333-5.967,7.588-7.423,12.237c-4.372,13.965-7.899,28.184-13.88,41.645
		c-2.27,5.11-3.247,10.809-4.664,16.278c-1.221,4.712-2.895,9.224-5.417,13.38c-3.471,5.72-6.436,11.685-8.422,18.065
		c-2.042,6.556-4.576,12.775-8.446,18.548c-5.463,8.149-7.727,17.633-10.063,27.024c-0.562,2.26-0.798,4.667-1.738,6.758
		c-7.488,16.65-11.924,34.16-15.669,51.963c-4.673,22.212-2.364,47.026-3.975,69.805c-1.49,21.066-3.839,42.074-7.055,62.947
		c-2.746,17.818-8.704,34.68-10.538,52.828c-0.392,3.818-1.118,7.578-2.21,11.265c-5.773,19.483-12.446,38.695-18.197,58.165
		c-17.039,57.686-56.167,103.459-80.776,157.32c-3.753,8.213-8.375,15.829-13.779,23.109c-4.534,6.108-8.419,12.778-9.585,20.655
		c-0.508,3.434-1.569,6.842-2.801,10.103c-3.098,8.199-1.087,14.879,5.188,20.767c11.568,10.854,14.765,24.794,14.308,40.007
		c-0.107,3.57-1.747,6.358-4.175,8.796c-9.345,9.378-15.672,20.28-18.764,33.35c-1.957,8.271-6.591,15.558-12.521,21.856
		c-2.836,3.011-6.431,4.097-10.337,4.328c-4.157,0.246-7.821,1.216-10.529,4.75c-0.863,1.126-2.336,1.865-3.649,2.553
		c-4.814,2.526-7.746,0.936-7.96-4.547c-0.103-2.655-0.963-4.697-2.456-6.841c-4.148-5.952-5.156-12.689-3.16-19.558
		c1.622-5.583,3.908-11.043,7.415-15.755c3.487-4.685,6.443-9.716,9.796-14.456c5.986-8.465,10.125-17.805,12.406-27.667
		c2.329-10.069-0.405-24.71-13.025-29.251c-3.599-1.295-7.127-2.678-10.851-3.656c-3.921-1.03-7.625-0.567-10.389,1.924
		c-9.176,8.27-20.75,13.31-29.403,22.264c-4.129,4.273-7.469,8.62-8.302,14.895c-0.783,5.901-2.478,11.737-5.806,16.902
		c-2.829,4.391-4.06,4.891-9.083,3.38c-4.349-1.308-6.181-0.827-7.888,3.423c-1.902,4.737-3.884,9.582-3.546,14.906
		c0.117,1.836,0.181,3.67-0.367,5.456c-1.36,4.432-1.175,8.944-0.252,13.365c0.993,4.756,0.16,9.172-1.072,13.76
		c-2.414,8.992-9.314,11.975-17.29,13.744c-1.511,0.335-3-0.048-4.333-0.826c-2.697-1.577-2.687-3.717-0.005-5.312
		c0.143-0.085,0.296-0.198,0.45-0.209c8.345-0.596,9.132-7.475,11.032-13.361c1.053-3.261-0.372-6.424-3.426-8.637
		c-2.88-2.086-4.854-0.407-7.081,1.278c-2.744,2.076-4.393,4.605-5.74,7.844c-2.219,5.336-4.836,10.642-9.608,14.396
		c-4.692,3.691-7.177,9.13-10.642,13.777c-4.201,5.632-4.539,6.038-11.1,4.524c-6.026-1.39-11.585-1.02-16.073,3.899
		c-1.341,1.47-3.179,1.614-5.024,1.855c-7.575,0.991-13.694,4.157-18.479,10.522c-9.379,12.475-18.778,24.927-27.949,37.559
		c-27.416,37.759-59.459,71.937-92.736,104.548c-16.651,16.317-33.652,32.281-50.785,48.09c-6.7,6.182-10.597,10.276-19.571,11.37
		c-7.663,0.934-18.071-0.498-16.803-10.699c0.757-6.091,2.224-12.094,6.272-17.122c2.975-3.696,4.222-7.93,4.852-12.786
		c1.326-10.216,4.177-20.146,7.43-29.972c2.763-8.348,4.908-16.922,6.902-25.495c1.297-5.572-0.822-7.069-6.263-5.185
		c-8.169,2.829-14.592,7.594-20.757,13.962c-13.538,13.985-24.501,30.208-38.868,43.449c-4.076,3.756-6.675,9.097-10.046,13.641
		c-4.569,6.157-9.473,12.043-14.698,17.66c-6.553,7.044-12.339,14.833-20.255,20.548c-2.307,1.666-4.45,4.011-7.533,2.148
		c-3.006-1.816-4.083-4.703-3.328-8.198c1.549-7.177,3.818-13.997,8.321-20.006c2.277-3.038,4.145-6.471,5.69-9.952
		c3.609-8.132,8.485-15.41,14.009-22.321c7.422-9.286,11.343-20.846,18.759-30.022c10.483-12.97,18.979-27.306,29.09-40.519
		c4.936-6.451,9.403-13.396,13.103-20.619c3.439-6.713,7.895-12.717,11.591-19.217c17.114-30.101,30.83-66.992,44.271-99.573
		c6.733-16.321,13.156-32.743,19.183-49.355c4.12-11.355,8.765-22.623,13.587-33.767c7.938-18.344,14.47-37.269,22.626-55.527
		c4.075-9.122,9.714-17.481,13.183-26.91c3.513-9.548,6.279-19.249,7.752-29.37c1.173-8.058,3.084-16.016,4.879-23.971
		c0.697-3.09,1.761-6.055,1.228-9.316c-0.152-0.931,0-2.126,0.482-2.912c3.468-5.656,3.862-12.377,6.474-18.318
		c3.549-8.071,3.074-16.975,5.159-25.37c0.852-3.429-1.774-6.355-5.839-6.659c-5.997-0.448-11.643-2.589-17.718-2.774
		c-8.799-0.269-15.678-5.178-21.878-10.949c-5.703-5.308-11.982-9.21-19.725-11.081c-11.617-2.807-20.046-10.048-25.924-20.416
		c-2.545-4.489-5.303-8.866-8.16-13.164c-1.863-2.803-4.328-5.077-7.599-6.25c-7.601-2.724-14.431-6.782-20.741-11.79
		c-3.342-2.652-7.126-3.398-11.303-2.293c-18.988,5.023-36.096-0.482-52.499-9.573c-3.232-1.791-6.211-4.288-7.513-7.792
		c-1.84-4.951-5.647-6.711-10.251-7.626c-7.673-1.524-15.342-3.068-23.034-4.486c-9.163-1.69-17.732-4.395-24.225-11.729
		c-1.794-2.026-3.526-3.937-4.496-6.479c-1.273-3.339-3.604-5.288-7.128-6.351c-4.819-1.454-9.733-2.601-14.666-2.951
		c-7.88-0.559-15.426-2.129-22.962-4.452c-6.008-1.852-10.785-5.144-14.842-9.681c-2.813-3.146-2.56-4.385,0.876-6.664
		c1.221-0.81,2.991-1.243,2.959-3.05c-0.039-2.191-1.922-3.072-3.587-3.724c-7.176-2.811-14.691-4.052-22.302-5.229
		c-10.307-1.594-20.833-3.142-29.244-10.32c-1.257-1.072-2.519-2.221-3.462-3.558c-1.413-2.001-1.381-3.77,0.859-5.569
		c3.793-3.047,3.56-5.622-0.751-7.868c-3.959-2.064-8.002-3.885-12.486-4.928c-9.228-2.146-18.537-4.131-27.406-7.603
		c-2.941-1.151-5.882-2.32-8.26-4.56c-2.492-2.348-3.974-4.867-2.529-8.411c1.326-3.253,0.052-5.746-2.439-7.952
		c-7.202-6.377-16.098-9.503-25.182-9.534c-25.421-0.084-47.383-8.684-67.631-23.522c-8.366-6.131-16.282-12.6-23.571-19.907
		c-2.757-2.764-4.93-6.021-5.764-9.798c-1.356-6.142-5.47-8.706-11.138-8.748c-10.93-0.082-20.917-3.579-30.899-7.458
		c-8.641-3.358-15.854-9.101-23.765-13.672c-9.012-5.207-15.005-13.343-20.829-21.617c-1.894-2.691-2.133-5.865-2.366-9.064
		c-0.452-6.228-2.199-8.029-8.14-7.22c-18.624,2.538-36.387-2.424-54.332-5.834c-3.521-0.669-6.303-2.709-8.813-5.35
		c-4.465-4.7-9.088-9.259-14.698-12.682c-2.844-1.735-5.379-3.911-7.837-6.18c-3.356-3.097-7.311-4.244-11.934-3.836
		c-6.962,0.614-13.907,1.542-20.921,1.513c-3.375-0.014-6.677-0.43-9.758-1.808c-3.403-1.522-4.218-3.998-2.503-7.338
		c0.601-1.171,1.34-2.378,2.31-3.237c7.869-6.968,16.137-13.587,25.194-18.775c8.468-4.851,17.997-7.728,27.38-10.697
		c11.01-3.484,22.535-4.46,33.638-7.402c12.731-3.374,25.865-4.487,38.79-6.716c17.653-3.045,35.549-4.154,53.557-4.19
		c13.827-0.028,27.625,0.637,41.422,0.956c12.732,0.294,25.525,0.287,38.253,2.514c8.114,1.42,16.581,1.155,24.821,2.448
		c12.983,2.037,26.081,3.232,38.983,5.924c10.26,2.141,20.713,3.344,31.032,5.228c15.873,2.899,31.683,6.206,47.691,8.243
		c10.725,1.365,21.084,5.049,32.028,4.892c13.612,5.807,28.85,3.672,42.732,9.156c7.508,2.965,16.037,4.121,24.386,4.824
		c11.065,0.931,21.008,6.29,31.695,8.678c5.742,1.283,10.494,4.841,16.426,5.661c11.41,1.578,22.975,1.171,34.331,2.923
		c12.299,1.898,24.84,2.665,36.66,7.062c5.318,1.979,10.727,3.499,16.316,4.606c47.356,9.38,95.826,22.99,138.722,45.391
		c5.219,2.725,10.659,4.821,16.513,5.449c5.782,0.62,10.553,3.948,16.011,5.467c9.933,2.764,19.759,5.838,29.15,10.304
		c11.958,5.687,23.035,12.738,33.595,20.599c11.683,8.696,24.627,10.343,38.449,7.783c8.69-1.609,14.579-7.806,20.583-13.517
		c6.062-5.766,12.583-10.854,19.367-15.725c7.256-5.21,13.053-11.844,16.482-20.285c1.003-2.469,1.932-4.979,3.1-7.369
		c7.561-15.463,11.07-31.956,12.561-48.968c0.395-4.511,1.312-8.856,3.124-13.053c2.281-5.282,2.987-10.913,2.822-16.631
		c-0.192-6.65,1.241-12.852,4.415-18.725c1.094-2.024,1.982-4.304,2.327-6.564c2.171-14.241,8.458-27.393,11.047-41.455
		c1.921-10.438,5.871-20.416,6.191-31.259c0.174-5.886,2.887-11.549,5.223-17.069c0.581-1.373,1.601-2.733,1.656-4.129
		c0.453-11.394,7.115-20.151,12.609-29.281c4.623-7.682,9.936-15.029,18.922-18.447c4.314-1.64,7.296-5.152,10.797-7.945
		c6.891-5.498,15.166-8.177,23.262-11.271c10.581-4.044,21.53-5.443,32.767-5.985c12.305-0.593,24.586-2.247,36.902-0.605
		c9.211,1.228,18.433,2.194,27.63,3.825c11.984,2.124,23.822,4.783,35.528,7.824c20.812,5.405,41.539,11.391,58.353,25.957
		c0.755,0.654,1.74,1.138,2.283,1.93c9.221,13.471,23.1,13.027,37.036,12.511c19.314-0.715,38.532-2.807,57.822-3.942
		c32.248-1.897,64.506-2.719,96.796-3.159c11.417-0.156,22.591,0.823,33.73,2.996c3.127,0.61,6.148,1.616,8.954,3.084
		c2.915,1.525,3.195,3.883,0.352,5.207c-12.48,5.809-24.533,12.987-39.014,12.833
		C1493.039,111.334,1482.375,111.425,1471.712,111.425z"/>
</g>
</svg>
